<svg version="1.1" xmlns="http://www.w3.org/2000/svg" xmlns:xlink="http://www.w3.org/1999/xlink" width="110px" height="35px" viewBox="0 0 110 35" enable-background="new 0 0 120 35" xml:space="preserve"><g opacity="0.2"><path fill="#000000" d="M83,11l-0.793-0.013c-4.287-0.177-8.249-2.072-12.355-4.073c-4.545-2.215-9.281-4.506-14.816-4.506 c-5.533, 0-10.257,2.29-14.757,4.504C36.211,8.914,32,10.81,28,10.987V11l-0.595-0.013c-4.26-0.175-8.186-2.037-12.277-4.002 C10.518,4.77,6,2.479,0,2.479v-2c6, 0,11.209,2.391,16.02,4.703c3.977,1.911,7.778,3.719,11.722,3.814 c3.962-0.096,7.719-1.935,11.669-3.879c4.705-2.315,9.581-4.709,15.579-4.709c5.996,0,10.911,2.394,15.66,4.708 c3.989,1.944,7.766,3.784,11.731,3.88c3.938-0.097,7.695-1.957,11.67-3.923C98.866,2.692,104,0.231,110,0.231v2 c-6, 0-10.308,2.356-14.916,4.635C90.992,8.89,87,10.807,83,10.986V11z"/> <path fill="#FFFFFF" d="M83,13l-0.793-0.013c-4.287-0.177-8.249-2.072-12.355-4.073c-4.545-2.215-9.281-4.506-14.816-4.506 c-5.533,0-10.257,2.29-14.757,4.504C36.211,10.914,32,12.81,28,12.987V13l-0.595-0.013c-4.26-0.175-8.186-2.037-12.277-4.002 C10.518,6.77,6,4.479,0,4.479v-2c6,0,11.209,2.391,16.02,4.703c3.977,1.911,7.778,3.719,11.722,3.814 c3.962-0.096,7.719-1.935,11.669-3.879c4.705-2.315,9.581-4.709,15.579-4.709c5.996,0,10.911,2.394,15.66,4.708 c3.989,1.944,7.766,3.784,11.731,3.88c3.938-0.097,7.695-1.957,11.67-3.923C98.866,4.692,104,2.231,110,2.231v2 c-6,0-10.308,2.356-14.916,4.635C90.992,10.89,87,12.807,83,12.986V13z"/></g><g opacity="0.2"><path fill="#000000" d="M83,18l-0.793-0.013c-4.287-0.177-8.249-2.072-12.355-4.073c-4.545-2.215-9.281-4.506-14.816-4.506 c-5.533,0-10.257,2.29-14.757,4.504C36.211,15.914,32,17.81,28,17.987V18l-0.595-0.013c-4.26-0.175-8.186-2.037-12.277-4.002 C10.518,11.77,6,9.479,0,9.479v-2c6,0,11.209,2.391,16.02,4.703c3.977,1.911,7.778,3.719,11.722,3.814 c3.962-0.096,7.719-1.935,11.669-3.879c4.705-2.315,9.581-4.709,15.579-4.709c5.996,0,10.911,2.394,15.66,4.708 c3.989,1.944,7.766,3.784,11.731,3.88c3.938-0.097,7.695-1.957,11.67-3.923C98.866,9.692,104,7.231,110,7.231v2 c-6,0-10.308,2.356-14.916,4.635C90.992,15.89,87,17.807,83,17.986V18z"/><path fill="#FFFFFF" d="M83,20l-0.793-0.013c-4.287-0.177-8.249-2.072-12.355-4.073c-4.545-2.215-9.281-4.506-14.816-4.506 c-5.533,0-10.257,2.29-14.757,4.504C36.211,17.914,32,19.81,28,19.987V20l-0.595-0.013c-4.26-0.175-8.186-2.037-12.277-4.002 C10.518,13.77,6,11.479,0,11.479v-2c6,0,11.209,2.391,16.02,4.703c3.977,1.911,7.778,3.719,11.722,3.814 c3.962-0.096,7.719-1.935,11.669-3.879c4.705-2.315,9.581-4.709,15.579-4.709c5.996,0,10.911,2.394,15.66,4.708 c3.989,1.944,7.766,3.784,11.731,3.88c3.938-0.097,7.695-1.957,11.67-3.923C98.866,11.692,104,9.231,110,9.231v2 c-6,0-10.308,2.356-14.916,4.635C90.992,17.89,87,19.807,83,19.986V20z"/></g><g opacity="0.2"><path fill="#000000" d="M83,25.667l-0.793-0.013c-4.287-0.177-8.249-2.072-12.355-4.073c-4.545-2.215-9.281-4.506-14.816-4.506 c-5.533,0-10.257,2.29-14.757,4.504C36.211,23.58,32,25.477,28,25.653v0.013l-0.595-0.013c-4.26-0.175-8.186-2.037-12.277-4.002 C10.518,19.436,6,17.146,0,17.146v-2c6,0,11.209,2.391,16.02,4.703c3.977,1.911,7.778,3.719,11.722,3.814 c3.962-0.096,7.719-1.935,11.669-3.879c4.705-2.315,9.581-4.709,15.579-4.709c5.996,0,10.911,2.394,15.66,4.708 c3.989,1.944,7.766,3.784,11.731,3.88c3.938-0.097,7.695-1.957,11.67-3.923c4.814-2.38,9.948-4.842,15.948-4.842v2 c-6,0-10.308,2.356-14.916,4.635C90.992,23.556,87,25.473,83,25.653V25.667z"/><path fill="#FFFFFF" d="M83,27.667l-0.793-0.013c-4.287-0.177-8.249-2.072-12.355-4.073c-4.545-2.215-9.281-4.506-14.816-4.506 c-5.533,0-10.257,2.29-14.757,4.504C36.211,25.58,32,27.477,28,27.653v0.013l-0.595-0.013c-4.26-0.175-8.186-2.037-12.277-4.002 C10.518,21.436,6,19.146,0,19.146v-2c6,0,11.209,2.391,16.02,4.703c3.977,1.911,7.778,3.719,11.722,3.814 c3.962-0.096,7.719-1.935,11.669-3.879c4.705-2.315,9.581-4.709,15.579-4.709c5.996,0,10.911,2.394,15.66,4.708 c3.989,1.944,7.766,3.784,11.731,3.88c3.938-0.097,7.695-1.957,11.67-3.923c4.814-2.38,9.948-4.842,15.948-4.842v2 c-6,0-10.308,2.356-14.916,4.635C90.992,25.556,87,27.473,83,27.653V27.667z"/></g><g opacity="0.2"><path fill="#000000" d="M83,33l-0.793-0.013c-4.287-0.177-8.249-2.072-12.355-4.073c-4.545-2.215-9.281-4.506-14.816-4.506 c-5.533,0-10.257,2.29-14.757,4.504C36.211,30.914,32,32.81,28,32.987V33l-0.595-0.013c-4.26-0.175-8.186-2.037-12.277-4.002 C10.518,26.77,6,24.479,0,24.479v-2c6,0,11.209,2.391,16.02,4.703c3.977,1.911,7.778,3.719,11.722,3.814 c3.962-0.096,7.719-1.935,11.669-3.879c4.705-2.315,9.581-4.709,15.579-4.709c5.996,0,10.911,2.394,15.66,4.708 c3.989,1.944,7.766,3.784,11.731,3.88c3.938-0.097,7.695-1.957,11.67-3.923c4.814-2.38,9.948-4.842,15.948-4.842v2 c-6,0-10.308,2.356-14.916,4.635C90.992,30.89,87,32.807,83,32.986V33z"/><path fill="#FFFFFF" d="M83,35l-0.793-0.013c-4.287-0.177-8.249-2.072-12.355-4.073c-4.545-2.215-9.281-4.506-14.816-4.506 c-5.533,0-10.257,2.29-14.757,4.504C36.211,32.914,32,34.81,28,34.987V35l-0.595-0.013c-4.26-0.175-8.186-2.037-12.277-4.002 C10.518,28.77,6,26.479,0,26.479v-2c6,0,11.209,2.391,16.02,4.703c3.977,1.911,7.778,3.719,11.722,3.814 c3.962-0.096,7.719-1.935,11.669-3.879c4.705-2.315,9.581-4.709,15.579-4.709c5.996,0,10.911,2.394,15.66,4.708 c3.989,1.944,7.766,3.784,11.731,3.88c3.938-0.097,7.695-1.957,11.67-3.923c4.814-2.38,9.948-4.842,15.948-4.842v2 c-6,0-10.308,2.356-14.916,4.635C90.992,32.89,87,34.807,83,34.986V35z"/></g></svg>